<svg version="1.1" viewBox="0.0 0.0 600.0 371.0" fill="none" stroke="none" stroke-linecap="square" stroke-miterlimit="10" width="600" height="371" xmlns:xlink="http://www.w3.org/1999/xlink" xmlns="http://www.w3.org/2000/svg"><path fill="#ffffff" fill-opacity="0.0" d="M0 0L600.0 0L600.0 371.0L0 371.0L0 0Z" fill-rule="nonzero"/><path fill="#ea4335" d="M300.0 88.38917C320.4674 88.38917 340.71463 91.34555 359.4752 97.07339L300.0 192.52583Z" fill-rule="nonzero"/><path fill="#fbbc04" d="M274.7079 89.90519C283.0615 88.896355 291.52298 88.38917 300.0 88.38917L300.0 192.52583Z" fill-rule="nonzero"/><path fill="#2e5dab" d="M448.76666 214.84084C448.76666 272.3539 382.16156 318.9775 300.0 318.9775C217.83844 318.9775 151.23334 272.3539 151.23334 214.84084L151.23334 192.52583C151.23334 250.03893 217.83844 296.6625 300.0 296.6625C382.16156 296.6625 448.76666 250.03893 448.76666 192.52583Z" fill-rule="nonzero"/><path fill="#4285f4" d="M359.4752 97.07339C427.14694 117.734436 462.93427 170.01025 443.54416 219.87596C424.15408 269.74167 355.4536 302.10895 282.15802 295.91086C208.86241 289.71274 153.14937 246.82463 151.28098 195.16124C149.41258 143.49785 201.95418 98.69141 274.7079 89.90519L300.0 192.52583Z" fill-rule="nonzero"/><path fill="#000000" d="M19.065624 85.20671Q19.065624 83.89421 19.471874 83.003586Q19.753124 82.347336 20.253124 81.83171Q20.76875 81.316086 21.378124 81.066086Q22.175 80.722336 23.221874 80.722336Q25.128124 80.722336 26.26875 81.909836Q27.409374 83.08171 27.409374 85.17546Q27.409374 87.253586 26.26875 88.42546Q25.14375 89.597336 23.253124 89.597336Q21.33125 89.597336 20.190624 88.441086Q19.065624 87.26921 19.065624 85.20671ZM20.8625 85.159836Q20.8625 86.61296 21.534374 87.36296Q22.20625 88.11296 23.2375 88.11296Q24.284374 88.11296 24.940624 87.378586Q25.6125 86.628586 25.6125 85.128586Q25.6125 83.659836 24.95625 82.941086Q24.315624 82.20671 23.2375 82.20671Q22.175 82.20671 21.51875 82.941086Q20.8625 83.67546 20.8625 85.159836ZM29.9875 89.45671L28.346874 89.45671L28.346874 83.23796L29.878124 83.23796L29.878124 84.11296Q30.26875 83.48796 30.58125 83.30046Q30.89375 83.097336 31.284374 83.097336Q31.846874 83.097336 32.378124 83.409836L31.8625 84.83171Q31.440624 84.566086 31.096874 84.566086Q30.7375 84.566086 30.503124 84.76921Q30.26875 84.95671 30.128124 85.45671Q29.9875 85.941086 29.9875 87.534836L29.9875 89.45671ZM33.253124 89.86296L35.14375 90.097336Q35.190624 90.42546 35.3625 90.55046Q35.596874 90.722336 36.096874 90.722336Q36.7375 90.722336 37.065624 90.534836Q37.284374 90.39421 37.39375 90.11296Q37.471874 89.909836 37.471874 89.36296L37.471874 88.441086Q36.721874 89.45671 35.596874 89.45671Q34.346874 89.45671 33.6125 88.39421Q33.05 87.55046 33.05 86.316086Q33.05 84.73796 33.8 83.92546Q34.55 83.097336 35.675 83.097336Q36.815624 83.097336 37.565624 84.11296L37.565624 83.23796L39.1125 83.23796L39.1125 88.816086Q39.1125 89.92546 38.925 90.45671Q38.753124 91.003586 38.425 91.316086Q38.096874 91.628586 37.55 91.80046Q37.003124 91.98796 36.159374 91.98796Q34.58125 91.98796 33.909374 91.441086Q33.253124 90.89421 33.253124 90.066086Q33.253124 89.98796 33.253124 89.86296ZM34.7375 86.222336Q34.7375 87.20671 35.1125 87.67546Q35.503124 88.128586 36.065624 88.128586Q36.659374 88.128586 37.08125 87.659836Q37.503124 87.17546 37.503124 86.253586Q37.503124 85.284836 37.096874 84.816086Q36.70625 84.347336 36.096874 84.347336Q35.503124 84.347336 35.1125 84.816086Q34.7375 85.26921 34.7375 86.222336ZM41.64375 85.128586L40.14375 84.86296Q40.39375 83.95671 41.003124 83.534836Q41.628124 83.097336 42.846874 83.097336Q43.940624 83.097336 44.471874 83.36296Q45.01875 83.61296 45.2375 84.01921Q45.45625 84.409836 45.45625 85.48796L45.440624 87.409836Q45.440624 88.23796 45.51875 88.628586Q45.596874 89.003586 45.815624 89.45671L44.190624 89.45671Q44.128124 89.284836 44.034374 88.972336Q43.9875 88.816086 43.971874 88.76921Q43.55 89.191086 43.065624 89.39421Q42.596874 89.597336 42.05 89.597336Q41.08125 89.597336 40.51875 89.08171Q39.971874 88.55046 39.971874 87.753586Q39.971874 87.222336 40.221874 86.816086Q40.4875 86.409836 40.940624 86.191086Q41.39375 85.95671 42.253124 85.80046Q43.39375 85.58171 43.846874 85.39421L43.846874 85.23796Q43.846874 84.753586 43.6125 84.55046Q43.378124 84.347336 42.721874 84.347336Q42.284374 84.347336 42.034374 84.51921Q41.8 84.691086 41.64375 85.128586ZM43.846874 86.472336Q43.534374 86.566086 42.846874 86.722336Q42.159374 86.86296 41.940624 87.003586Q41.628124 87.23796 41.628124 87.58171Q41.628124 87.92546 41.878124 88.191086Q42.14375 88.441086 42.534374 88.441086Q42.9875 88.441086 43.39375 88.14421Q43.690624 87.92546 43.784374 87.597336Q43.846874 87.39421 43.846874 86.80046L43.846874 86.472336ZM53.065624 89.45671L51.425 89.45671L51.425 86.284836Q51.425 85.26921 51.315624 84.972336Q51.221874 84.67546 50.971874 84.51921Q50.7375 84.347336 50.409374 84.347336Q49.971874 84.347336 49.628124 84.58171Q49.3 84.816086 49.175 85.20671Q49.05 85.597336 49.05 86.64421L49.05 89.45671L47.39375 89.45671L47.39375 83.23796L48.925 83.23796L48.925 84.14421Q49.7375 83.097336 50.9875 83.097336Q51.51875 83.097336 51.971874 83.30046Q52.425 83.48796 52.659374 83.80046Q52.89375 84.097336 52.971874 84.48796Q53.065624 84.86296 53.065624 85.58171L53.065624 89.45671ZM54.409374 82.39421L54.409374 80.86296L56.065624 80.86296L56.065624 82.39421L54.409374 82.39421ZM54.409374 89.45671L54.409374 83.23796L56.065624 83.23796L56.065624 89.45671L54.409374 89.45671ZM56.753124 89.45671L56.753124 88.17546L59.08125 85.48796Q59.659374 84.83171 59.925 84.566086Q59.64375 84.58171 59.175 84.58171L56.971874 84.597336L56.971874 83.23796L62.128124 83.23796L62.128124 84.39421L59.7375 87.14421L58.909374 88.05046Q59.596874 88.003586 59.753124 88.003586L62.3 88.003586L62.3 89.45671L56.753124 89.45671ZM64.64375 85.128586L63.14375 84.86296Q63.39375 83.95671 64.00313 83.534836Q64.62813 83.097336 65.84688 83.097336Q66.94063 83.097336 67.47188 83.36296Q68.01875 83.61296 68.2375 84.01921Q68.45625 84.409836 68.45625 85.48796L68.44063 87.409836Q68.44063 88.23796 68.51875 88.628586Q68.59688 89.003586 68.81563 89.45671L67.19063 89.45671Q67.12813 89.284836 67.03438 88.972336Q66.9875 88.816086 66.97188 88.76921Q66.55 89.191086 66.06563 89.39421Q65.59688 89.597336 65.05 89.597336Q64.08125 89.597336 63.51875 89.08171Q62.971874 88.55046 62.971874 87.753586Q62.971874 87.222336 63.221874 86.816086Q63.4875 86.409836 63.940624 86.191086Q64.39375 85.95671 65.25313 85.80046Q66.39375 85.58171 66.84688 85.39421L66.84688 85.23796Q66.84688 84.753586 66.6125 84.55046Q66.37813 84.347336 65.72188 84.347336Q65.28438 84.347336 65.03438 84.51921Q64.8 84.691086 64.64375 85.128586ZM66.84688 86.472336Q66.53438 86.566086 65.84688 86.722336Q65.15938 86.86296 64.94063 87.003586Q64.62813 87.23796 64.62813 87.58171Q64.62813 87.92546 64.87813 88.191086Q65.14375 88.441086 65.53438 88.441086Q65.9875 88.441086 66.39375 88.14421Q66.69063 87.92546 66.78438 87.597336Q66.84688 87.39421 66.84688 86.80046L66.84688 86.472336ZM75.83125 85.066086L74.22188 85.36296Q74.12813 84.878586 73.83125 84.64421Q73.55 84.39421 73.09688 84.39421Q72.47188 84.39421 72.09688 84.816086Q71.7375 85.23796 71.7375 86.23796Q71.7375 87.347336 72.1125 87.80046Q72.4875 88.253586 73.1125 88.253586Q73.58125 88.253586 73.87813 87.98796Q74.175 87.722336 74.3 87.066086L75.925 87.347336Q75.675 88.45671 74.95625 89.034836Q74.2375 89.597336 73.03438 89.597336Q71.675 89.597336 70.8625 88.73796Q70.05 87.878586 70.05 86.347336Q70.05 84.816086 70.8625 83.95671Q71.675 83.097336 73.06563 83.097336Q74.20625 83.097336 74.87813 83.58171Q75.55 84.066086 75.83125 85.066086ZM71.39375 91.816086L71.39375 91.128586Q72.00313 91.191086 72.50313 91.191086Q73.03438 91.191086 73.28438 91.003586Q73.47188 90.86296 73.47188 90.64421Q73.47188 90.441086 73.28438 90.284836Q73.1125 90.14421 72.72188 90.14421Q72.34688 90.14421 71.95625 90.26921L72.1125 89.691086Q72.56563 89.534836 73.09688 89.534836Q73.83125 89.534836 74.20625 89.847336Q74.59688 90.17546 74.59688 90.628586Q74.59688 91.14421 74.175 91.472336Q73.59688 91.909836 72.53438 91.909836Q71.78438 91.909836 71.39375 91.816086ZM77.03438 86.253586Q77.03438 85.441086 77.44063 84.67546Q77.84688 83.89421 78.58125 83.503586Q79.31563 83.097336 80.2375 83.097336Q81.64375 83.097336 82.55 84.01921Q83.45625 84.92546 83.45625 86.33171Q83.45625 87.73796 82.53438 88.67546Q81.62813 89.597336 80.25313 89.597336Q79.39375 89.597336 78.6125 89.20671Q77.84688 88.816086 77.44063 88.08171Q77.03438 87.33171 77.03438 86.253586ZM78.72188 86.347336Q78.72188 87.26921 79.15938 87.76921Q79.59688 88.253586 80.2375 88.253586Q80.89375 88.253586 81.31563 87.76921Q81.75313 87.26921 81.75313 86.33171Q81.75313 85.42546 81.31563 84.941086Q80.89375 84.441086 80.2375 84.441086Q79.59688 84.441086 79.15938 84.941086Q78.72188 85.42546 78.72188 86.347336ZM78.97188 82.39421L78.20625 82.39421Q78.20625 82.253586 78.20625 82.191086Q78.20625 81.566086 78.50313 81.23796Q78.8 80.909836 79.26875 80.909836Q79.4875 80.909836 79.65938 80.95671Q79.83125 80.98796 80.3 81.20671Q80.76875 81.409836 81.03438 81.409836Q81.22188 81.409836 81.34688 81.30046Q81.47188 81.17546 81.50313 80.89421L82.26875 80.89421Q82.25313 81.691086 81.95625 82.034836Q81.675 82.378586 81.22188 82.378586Q81.01875 82.378586 80.83125 82.33171Q80.69063 82.30046 80.14375 82.097336Q79.6125 81.878586 79.3625 81.878586Q79.175 81.878586 79.06563 82.003586Q78.97188 82.11296 78.97188 82.39421ZM88.01875 87.472336L89.65938 87.753586Q89.34688 88.659836 88.65938 89.128586Q87.97188 89.597336 86.95625 89.597336Q85.33125 89.597336 84.55 88.534836Q83.925 87.691086 83.925 86.39421Q83.925 84.847336 84.7375 83.972336Q85.55 83.097336 86.78438 83.097336Q88.175 83.097336 88.97188 84.01921Q89.78438 84.92546 89.7375 86.816086L85.6125 86.816086Q85.64375 87.55046 86.01875 87.95671Q86.39375 88.36296 86.97188 88.36296Q87.34688 88.36296 87.6125 88.159836Q87.87813 87.941086 88.01875 87.472336ZM88.1125 85.816086Q88.09688 85.097336 87.7375 84.722336Q87.39375 84.347336 86.87813 84.347336Q86.34688 84.347336 85.9875 84.73796Q85.64375 85.14421 85.64375 85.816086L88.1125 85.816086ZM90.83125 87.67546L92.4875 87.42546Q92.59688 87.909836 92.90938 88.159836Q93.2375 88.409836 93.81563 88.409836Q94.45625 88.409836 94.76875 88.17546Q94.9875 88.003586 94.9875 87.73796Q94.9875 87.55046 94.87813 87.42546Q94.75313 87.30046 94.33125 87.20671Q92.33125 86.76921 91.8 86.409836Q91.06563 85.89421 91.06563 85.003586Q91.06563 84.191086 91.69063 83.64421Q92.33125 83.097336 93.675 83.097336Q94.95625 83.097336 95.58125 83.51921Q96.20625 83.92546 96.44063 84.73796L94.87813 85.01921Q94.78438 84.659836 94.50313 84.472336Q94.22188 84.26921 93.70625 84.26921Q93.06563 84.26921 92.78438 84.45671Q92.59688 84.58171 92.59688 84.784836Q92.59688 84.972336 92.75313 85.097336Q92.97188 85.253586 94.28438 85.55046Q95.6125 85.847336 96.12813 86.284836Q96.64375 86.722336 96.64375 87.503586Q96.64375 88.36296 95.925 88.98796Q95.22188 89.597336 93.81563 89.597336Q92.55 89.597336 91.8 89.08171Q91.06563 88.566086 90.83125 87.67546Z" fill-rule="nonzero"/><path fill="#9e9e9e" d="M24.628124 104.92546L24.628124 106.45671L18.846874 106.45671Q18.940624 105.58171 19.409374 104.816086Q19.878124 104.034836 21.26875 102.753586Q22.378124 101.722336 22.628124 101.347336Q22.971874 100.83171 22.971874 100.33171Q22.971874 99.784836 22.675 99.48796Q22.378124 99.191086 21.8625 99.191086Q21.346874 99.191086 21.034374 99.503586Q20.7375 99.816086 20.690624 100.534836L19.05 100.378586Q19.190624 99.01921 19.95625 98.42546Q20.7375 97.83171 21.89375 97.83171Q23.175 97.83171 23.89375 98.51921Q24.628124 99.20671 24.628124 100.222336Q24.628124 100.80046 24.409374 101.33171Q24.20625 101.847336 23.753124 102.42546Q23.45625 102.80046 22.675 103.51921Q21.89375 104.23796 21.690624 104.472336Q21.4875 104.70671 21.346874 104.92546L24.628124 104.92546ZM26.378124 104.816086L28.01875 104.816086L28.01875 105.98796Q28.01875 106.70671 27.89375 107.11296Q27.76875 107.534836 27.425 107.86296Q27.08125 108.191086 26.565624 108.378586L26.2375 107.691086Q26.7375 107.534836 26.940624 107.23796Q27.159374 106.95671 27.175 106.45671L26.378124 106.45671L26.378124 104.816086ZM29.065624 99.51921L29.065624 97.98796L34.690624 97.98796L34.690624 99.17546Q33.9875 99.86296 33.26875 101.14421Q32.55 102.42546 32.175 103.878586Q31.8 105.316086 31.8 106.45671L30.221874 106.45671Q30.253124 104.67546 30.940624 102.83171Q31.64375 100.972336 32.8 99.51921L29.065624 99.51921ZM36.065624 99.98796Q36.065624 98.83171 36.565624 98.284836Q37.08125 97.722336 37.95625 97.722336Q38.846874 97.722336 39.346874 98.284836Q39.8625 98.83171 39.8625 99.98796Q39.8625 101.14421 39.346874 101.70671Q38.846874 102.253586 37.9875 102.253586Q37.08125 102.253586 36.565624 101.70671Q36.065624 101.14421 36.065624 99.98796ZM37.3625 99.972336Q37.3625 100.816086 37.55 101.097336Q37.690624 101.316086 37.95625 101.316086Q38.221874 101.316086 38.3625 101.097336Q38.55 100.816086 38.55 99.972336Q38.55 99.14421 38.3625 98.86296Q38.221874 98.64421 37.95625 98.64421Q37.690624 98.64421 37.55 98.847336Q37.3625 99.14421 37.3625 99.972336ZM39.20625 106.784836L37.9875 106.784836L42.565624 97.722336L43.753124 97.722336L39.20625 106.784836ZM41.8625 104.534836Q41.8625 103.378586 42.3625 102.816086Q42.878124 102.253586 43.753124 102.253586Q44.64375 102.253586 45.14375 102.816086Q45.659374 103.378586 45.659374 104.534836Q45.659374 105.691086 45.14375 106.253586Q44.64375 106.80046 43.784374 106.80046Q42.878124 106.80046 42.3625 106.253586Q41.8625 105.691086 41.8625 104.534836ZM43.14375 104.51921Q43.14375 105.36296 43.346874 105.64421Q43.4875 105.86296 43.753124 105.86296Q44.01875 105.86296 44.159374 105.64421Q44.346874 105.36296 44.346874 104.51921Q44.346874 103.691086 44.159374 103.39421Q44.01875 103.191086 43.753124 103.191086Q43.4875 103.191086 43.346874 103.39421Q43.14375 103.691086 43.14375 104.51921Z" fill-rule="nonzero"/><path stroke="#757575" stroke-width="1.0" stroke-linecap="butt" d="M18.55 93.95671L145.23334 93.95671L287.94226 93.95671" fill-rule="nonzero"/><path fill="#9e9e9e" d="M289.94226 93.95671C289.94226 92.85214 289.04684 91.95671 287.94226 91.95671C286.8377 91.95671 285.94226 92.85214 285.94226 93.95671C285.94226 95.06128 286.8377 95.95671 287.94226 95.95671C289.04684 95.95671 289.94226 95.06128 289.94226 93.95671" fill-rule="nonzero"/><path fill="#000000" d="M19.425 286.2416L19.425 277.64786L21.159374 277.64786L21.159374 281.03848L24.565624 281.03848L24.565624 277.64786L26.3 277.64786L26.3 286.2416L24.565624 286.2416L24.565624 282.4916L21.159374 282.4916L21.159374 286.2416L19.425 286.2416ZM27.034374 283.03848Q27.034374 282.22598 27.440624 281.46036Q27.846874 280.6791 28.58125 280.28848Q29.315624 279.88223 30.2375 279.88223Q31.64375 279.88223 32.55 280.8041Q33.45625 281.71036 33.45625 283.1166Q33.45625 284.52286 32.534374 285.46036Q31.628124 286.38223 30.253124 286.38223Q29.39375 286.38223 28.6125 285.9916Q27.846874 285.60098 27.440624 284.8666Q27.034374 284.1166 27.034374 283.03848ZM28.721874 283.13223Q28.721874 284.0541 29.159374 284.5541Q29.596874 285.03848 30.2375 285.03848Q30.89375 285.03848 31.315624 284.5541Q31.753124 284.0541 31.753124 283.1166Q31.753124 282.21036 31.315624 281.72598Q30.89375 281.22598 30.2375 281.22598Q29.596874 281.22598 29.159374 281.72598Q28.721874 282.21036 28.721874 283.13223ZM34.284374 280.02286L35.8 280.02286L35.8 280.8666Q36.628124 279.88223 37.753124 279.88223Q38.346874 279.88223 38.784374 280.13223Q39.221874 280.3666 39.503124 280.8666Q39.909374 280.3666 40.378124 280.13223Q40.8625 279.88223 41.409374 279.88223Q42.08125 279.88223 42.55 280.16348Q43.034374 280.4291 43.26875 280.97598Q43.440624 281.3666 43.440624 282.25723L43.440624 286.2416L41.8 286.2416L41.8 282.6791Q41.8 281.75723 41.628124 281.4916Q41.39375 281.13223 40.925 281.13223Q40.58125 281.13223 40.26875 281.35098Q39.971874 281.5541 39.83125 281.96036Q39.690624 282.3666 39.690624 283.25723L39.690624 286.2416L38.05 286.2416L38.05 282.83536Q38.05 281.9291 37.95625 281.66348Q37.878124 281.39786 37.690624 281.27286Q37.503124 281.13223 37.190624 281.13223Q36.815624 281.13223 36.503124 281.35098Q36.20625 281.5541 36.065624 281.94473Q35.940624 282.31973 35.940624 283.21036L35.940624 286.2416L34.284374 286.2416L34.284374 280.02286ZM49.01875 284.25723L50.659374 284.53848Q50.346874 285.44473 49.659374 285.91348Q48.971874 286.38223 47.95625 286.38223Q46.33125 286.38223 45.55 285.31973Q44.925 284.47598 44.925 283.1791Q44.925 281.63223 45.7375 280.75723Q46.55 279.88223 47.784374 279.88223Q49.175 279.88223 49.971874 280.8041Q50.784374 281.71036 50.7375 283.60098L46.6125 283.60098Q46.64375 284.33536 47.01875 284.7416Q47.39375 285.14786 47.971874 285.14786Q48.346874 285.14786 48.6125 284.94473Q48.878124 284.72598 49.01875 284.25723ZM49.1125 282.60098Q49.096874 281.88223 48.7375 281.50723Q48.39375 281.13223 47.878124 281.13223Q47.346874 281.13223 46.9875 281.52286Q46.64375 281.9291 46.64375 282.60098L49.1125 282.60098ZM58.065624 286.2416L56.425 286.2416L56.425 283.06973Q56.425 282.0541 56.315624 281.75723Q56.221874 281.46036 55.971874 281.3041Q55.7375 281.13223 55.409374 281.13223Q54.971874 281.13223 54.628124 281.3666Q54.3 281.60098 54.175 281.9916Q54.05 282.38223 54.05 283.4291L54.05 286.2416L52.39375 286.2416L52.39375 280.02286L53.925 280.02286L53.925 280.9291Q54.7375 279.88223 55.9875 279.88223Q56.51875 279.88223 56.971874 280.08536Q57.425 280.27286 57.659374 280.58536Q57.89375 280.88223 57.971874 281.27286Q58.065624 281.64786 58.065624 282.3666L58.065624 286.2416ZM58.83125 284.46036L60.4875 284.21036Q60.596874 284.69473 60.909374 284.94473Q61.2375 285.19473 61.815624 285.19473Q62.45625 285.19473 62.76875 284.96036Q62.9875 284.78848 62.9875 284.52286Q62.9875 284.33536 62.878124 284.21036Q62.753124 284.08536 62.33125 283.9916Q60.33125 283.5541 59.8 283.19473Q59.065624 282.6791 59.065624 281.78848Q59.065624 280.97598 59.690624 280.4291Q60.33125 279.88223 61.675 279.88223Q62.95625 279.88223 63.58125 280.3041Q64.20625 280.71036 64.44063 281.52286L62.878124 281.8041Q62.784374 281.44473 62.503124 281.25723Q62.221874 281.0541 61.70625 281.0541Q61.065624 281.0541 60.784374 281.2416Q60.596874 281.3666 60.596874 281.56973Q60.596874 281.75723 60.753124 281.88223Q60.971874 282.03848 62.284374 282.33536Q63.6125 282.63223 64.12813 283.06973Q64.64375 283.50723 64.64375 284.28848Q64.64375 285.14786 63.925 285.77286Q63.221874 286.38223 61.815624 286.38223Q60.55 286.38223 59.8 285.8666Q59.065624 285.35098 58.83125 284.46036Z" fill-rule="nonzero"/><path fill="#9e9e9e" d="M19.096874 301.25723L20.690624 301.08536Q20.753124 301.56973 20.9875 301.8041Q21.2375 302.03848 21.64375 302.03848Q22.159374 302.03848 22.503124 301.56973Q22.8625 301.10098 22.971874 299.6166Q22.346874 300.33536 21.409374 300.33536Q20.409374 300.33536 19.659374 299.5541Q18.925 298.77286 18.925 297.52286Q18.925 296.21036 19.70625 295.41348Q20.4875 294.6166 21.690624 294.6166Q22.9875 294.6166 23.83125 295.63223Q24.675 296.63223 24.675 298.94473Q24.675 301.3041 23.8 302.35098Q22.925 303.39786 21.51875 303.39786Q20.51875 303.39786 19.89375 302.8666Q19.26875 302.31973 19.096874 301.25723ZM22.815624 297.66348Q22.815624 296.8666 22.45625 296.4291Q22.096874 295.97598 21.6125 295.97598Q21.159374 295.97598 20.846874 296.33536Q20.55 296.69473 20.55 297.52286Q20.55 298.35098 20.878124 298.7416Q21.20625 299.13223 21.690624 299.13223Q22.175 299.13223 22.4875 298.75723Q22.815624 298.38223 22.815624 297.66348ZM28.846874 294.6166Q30.096874 294.6166 30.8 295.50723Q31.628124 296.5541 31.628124 299.00723Q31.628124 301.44473 30.784374 302.50723Q30.096874 303.38223 28.846874 303.38223Q27.596874 303.38223 26.815624 302.4291Q26.05 301.46036 26.05 298.9916Q26.05 296.5541 26.89375 295.4916Q27.596874 294.6166 28.846874 294.6166ZM28.846874 295.97598Q28.55 295.97598 28.315624 296.1791Q28.08125 296.3666 27.940624 296.85098Q27.784374 297.4916 27.784374 299.00723Q27.784374 300.52286 27.925 301.08536Q28.08125 301.64786 28.315624 301.83536Q28.55 302.02286 28.846874 302.02286Q29.14375 302.02286 29.378124 301.83536Q29.6125 301.64786 29.7375 301.14786Q29.909374 300.52286 29.909374 299.00723Q29.909374 297.4916 29.753124 296.9291Q29.6125 296.3666 29.378124 296.1791Q29.14375 295.97598 28.846874 295.97598ZM33.378124 301.60098L35.01875 301.60098L35.01875 302.77286Q35.01875 303.4916 34.89375 303.89786Q34.76875 304.31973 34.425 304.64786Q34.08125 304.97598 33.565624 305.16348L33.2375 304.47598Q33.7375 304.31973 33.940624 304.02286Q34.159374 303.7416 34.175 303.2416L33.378124 303.2416L33.378124 301.60098ZM36.065624 296.3041L36.065624 294.77286L41.690624 294.77286L41.690624 295.96036Q40.9875 296.64786 40.26875 297.9291Q39.55 299.21036 39.175 300.66348Q38.8 302.10098 38.8 303.2416L37.221874 303.2416Q37.253124 301.46036 37.940624 299.6166Q38.64375 297.75723 39.8 296.3041L36.065624 296.3041ZM43.065624 296.77286Q43.065624 295.6166 43.565624 295.06973Q44.08125 294.50723 44.95625 294.50723Q45.846874 294.50723 46.346874 295.06973Q46.8625 295.6166 46.8625 296.77286Q46.8625 297.9291 46.346874 298.4916Q45.846874 299.03848 44.9875 299.03848Q44.08125 299.03848 43.565624 298.4916Q43.065624 297.9291 43.065624 296.77286ZM44.3625 296.75723Q44.3625 297.60098 44.55 297.88223Q44.690624 298.10098 44.95625 298.10098Q45.221874 298.10098 45.3625 297.88223Q45.55 297.60098 45.55 296.75723Q45.55 295.9291 45.3625 295.64786Q45.221874 295.4291 44.95625 295.4291Q44.690624 295.4291 44.55 295.63223Q44.3625 295.9291 44.3625 296.75723ZM46.20625 303.56973L44.9875 303.56973L49.565624 294.50723L50.753124 294.50723L46.20625 303.56973ZM48.8625 301.31973Q48.8625 300.16348 49.3625 299.60098Q49.878124 299.03848 50.753124 299.03848Q51.64375 299.03848 52.14375 299.60098Q52.659374 300.16348 52.659374 301.31973Q52.659374 302.47598 52.14375 303.03848Q51.64375 303.58536 50.784374 303.58536Q49.878124 303.58536 49.3625 303.03848Q48.8625 302.47598 48.8625 301.31973ZM50.14375 301.3041Q50.14375 302.14786 50.346874 302.4291Q50.4875 302.64786 50.753124 302.64786Q51.01875 302.64786 51.159374 302.4291Q51.346874 302.14786 51.346874 301.3041Q51.346874 300.47598 51.159374 300.1791Q51.01875 299.97598 50.753124 299.97598Q50.4875 299.97598 50.346874 300.1791Q50.14375 300.47598 50.14375 301.3041Z" fill-rule="nonzero"/><path stroke="#757575" stroke-width="1.0" stroke-linecap="butt" d="M18.55 290.7416L145.23334 290.7416L283.0501 290.7416" fill-rule="nonzero"/><path fill="#9e9e9e" d="M285.0501 290.7416C285.0501 289.63702 284.1547 288.7416 283.0501 288.7416C281.94556 288.7416 281.0501 289.63702 281.0501 290.7416C281.0501 291.84616 281.94556 292.7416 283.0501 292.7416C284.1547 292.7416 285.0501 291.84616 285.0501 290.7416" fill-rule="nonzero"/><path fill="#000000" d="M529.29376 91.180466L529.29376 82.586716L531.90314 82.586716L533.45 88.44609L534.9969 82.586716L537.59064 82.586716L537.59064 91.180466L535.98126 91.180466L535.98126 84.41484L534.27814 91.180466L532.60626 91.180466L530.91876 84.41484L530.91876 91.180466L529.29376 91.180466ZM543.40314 91.180466L543.40314 90.242966Q543.075 90.742966 542.5125 91.03984Q541.96564 91.32109 541.34064 91.32109Q540.71564 91.32109 540.21564 91.055466Q539.71564 90.774216 539.4969 90.274216Q539.27814 89.774216 539.27814 88.899216L539.27814 84.961716L540.91876 84.961716L540.91876 87.82109Q540.91876 89.13359 541.0125 89.430466Q541.10626 89.72734 541.34064 89.899216Q541.59064 90.07109 541.95 90.07109Q542.3719 90.07109 542.7 89.836716Q543.04376 89.60234 543.16876 89.25859Q543.29376 88.91484 543.29376 87.586716L543.29376 84.961716L544.9344 84.961716L544.9344 91.180466L543.40314 91.180466ZM546.3094 91.180466L546.3094 82.586716L547.96564 82.586716L547.96564 91.180466L546.3094 91.180466ZM550.95 82.586716L550.95 85.742966Q551.7469 84.82109 552.85626 84.82109Q553.41876 84.82109 553.8719 85.03984Q554.34064 85.242966 554.575 85.57109Q554.8094 85.899216 554.8875 86.305466Q554.96564 86.69609 554.96564 87.524216L554.96564 91.180466L553.325 91.180466L553.325 87.899216Q553.325 86.91484 553.23126 86.649216Q553.1375 86.38359 552.90314 86.22734Q552.66876 86.07109 552.3094 86.07109Q551.90314 86.07109 551.575 86.274216Q551.2469 86.47734 551.09064 86.88359Q550.95 87.274216 550.95 88.055466L550.95 91.180466L549.3094 91.180466L549.3094 82.586716L550.95 82.586716ZM559.91876 89.19609L561.5594 89.47734Q561.2469 90.38359 560.5594 90.85234Q559.8719 91.32109 558.85626 91.32109Q557.23126 91.32109 556.45 90.25859Q555.825 89.41484 555.825 88.117966Q555.825 86.57109 556.6375 85.69609Q557.45 84.82109 558.6844 84.82109Q560.075 84.82109 560.8719 85.742966Q561.6844 86.649216 561.6375 88.53984L557.5125 88.53984Q557.54376 89.274216 557.91876 89.680466Q558.29376 90.086716 558.8719 90.086716Q559.2469 90.086716 559.5125 89.88359Q559.77814 89.66484 559.91876 89.19609ZM560.0125 87.53984Q559.9969 86.82109 559.6375 86.44609Q559.29376 86.07109 558.77814 86.07109Q558.2469 86.07109 557.8875 86.461716Q557.54376 86.867966 557.54376 87.53984L560.0125 87.53984ZM564.8875 91.180466L563.2469 91.180466L563.2469 84.961716L564.77814 84.961716L564.77814 85.836716Q565.16876 85.211716 565.48126 85.024216Q565.79376 84.82109 566.1844 84.82109Q566.7469 84.82109 567.27814 85.13359L566.7625 86.555466Q566.34064 86.28984 565.9969 86.28984Q565.6375 86.28984 565.40314 86.492966Q565.16876 86.680466 565.02814 87.180466Q564.8875 87.66484 564.8875 89.25859L564.8875 91.180466ZM571.91876 89.19609L573.5594 89.47734Q573.2469 90.38359 572.5594 90.85234Q571.8719 91.32109 570.85626 91.32109Q569.23126 91.32109 568.45 90.25859Q567.825 89.41484 567.825 88.117966Q567.825 86.57109 568.6375 85.69609Q569.45 84.82109 570.6844 84.82109Q572.075 84.82109 572.8719 85.742966Q573.6844 86.649216 573.6375 88.53984L569.5125 88.53984Q569.54376 89.274216 569.91876 89.680466Q570.29376 90.086716 570.8719 90.086716Q571.2469 90.086716 571.5125 89.88359Q571.77814 89.66484 571.91876 89.19609ZM572.0125 87.53984Q571.9969 86.82109 571.6375 86.44609Q571.29376 86.07109 570.77814 86.07109Q570.2469 86.07109 569.8875 86.461716Q569.54376 86.867966 569.54376 87.53984L572.0125 87.53984ZM574.73126 89.399216L576.3875 89.149216Q576.4969 89.63359 576.8094 89.88359Q577.1375 90.13359 577.71564 90.13359Q578.35626 90.13359 578.66876 89.899216Q578.8875 89.72734 578.8875 89.461716Q578.8875 89.274216 578.77814 89.149216Q578.65314 89.024216 578.23126 88.930466Q576.23126 88.492966 575.7 88.13359Q574.96564 87.617966 574.96564 86.72734Q574.96564 85.91484 575.59064 85.367966Q576.23126 84.82109 577.575 84.82109Q578.85626 84.82109 579.48126 85.242966Q580.10626 85.649216 580.34064 86.461716L578.77814 86.742966Q578.6844 86.38359 578.40314 86.19609Q578.1219 85.992966 577.60626 85.992966Q576.96564 85.992966 576.6844 86.180466Q576.4969 86.305466 576.4969 86.50859Q576.4969 86.69609 576.65314 86.82109Q576.8719 86.97734 578.1844 87.274216Q579.5125 87.57109 580.02814 88.00859Q580.54376 88.44609 580.54376 89.22734Q580.54376 90.086716 579.825 90.711716Q579.1219 91.32109 577.71564 91.32109Q576.45 91.32109 575.7 90.805466Q574.96564 90.28984 574.73126 89.399216Z" fill-rule="nonzero"/><path fill="#9e9e9e" d="M561.54376 101.69609L559.95 101.867966Q559.8875 101.38359 559.6375 101.149216Q559.3875 100.91484 558.9969 100.91484Q558.48126 100.91484 558.1219 101.38359Q557.7625 101.85234 557.66876 103.32109Q558.27814 102.60234 559.2 102.60234Q560.23126 102.60234 560.96564 103.38359Q561.7 104.16484 561.7 105.41484Q561.7 106.72734 560.91876 107.524216Q560.15314 108.32109 558.9344 108.32109Q557.6375 108.32109 556.79376 107.32109Q555.96564 106.305466 555.96564 104.00859Q555.96564 101.63359 556.825 100.60234Q557.7 99.555466 559.10626 99.555466Q560.075 99.555466 560.71564 100.10234Q561.35626 100.649216 561.54376 101.69609ZM557.8094 105.28984Q557.8094 106.086716 558.16876 106.524216Q558.54376 106.961716 559.0125 106.961716Q559.48126 106.961716 559.77814 106.60234Q560.09064 106.242966 560.09064 105.430466Q560.09064 104.586716 559.7625 104.211716Q559.4344 103.82109 558.9344 103.82109Q558.46564 103.82109 558.1375 104.19609Q557.8094 104.555466 557.8094 105.28984ZM563.27814 106.53984L564.91876 106.53984L564.91876 107.711716Q564.91876 108.430466 564.79376 108.836716Q564.66876 109.25859 564.325 109.586716Q563.98126 109.91484 563.46564 110.10234L563.1375 109.41484Q563.6375 109.25859 563.84064 108.961716Q564.0594 108.680466 564.075 108.180466L563.27814 108.180466L563.27814 106.53984ZM565.98126 105.97734L567.6219 105.805466Q567.7 106.35234 568.04376 106.680466Q568.3875 107.00859 568.84064 107.00859Q569.35626 107.00859 569.71564 106.586716Q570.075 106.16484 570.075 105.32109Q570.075 104.53984 569.71564 104.149216Q569.35626 103.742966 568.79376 103.742966Q568.075 103.742966 567.5125 104.367966L566.1844 104.180466L567.02814 99.711716L571.3875 99.711716L571.3875 101.242966L568.27814 101.242966L568.0125 102.711716Q568.575 102.430466 569.1375 102.430466Q570.23126 102.430466 570.9969 103.22734Q571.7625 104.024216 571.7625 105.28984Q571.7625 106.35234 571.15314 107.19609Q570.3094 108.32109 568.825 108.32109Q567.6375 108.32109 566.8875 107.69609Q566.1375 107.055466 565.98126 105.97734ZM572.96564 101.711716Q572.96564 100.555466 573.46564 100.00859Q573.98126 99.44609 574.85626 99.44609Q575.7469 99.44609 576.2469 100.00859Q576.7625 100.555466 576.7625 101.711716Q576.7625 102.867966 576.2469 103.430466Q575.7469 103.97734 574.8875 103.97734Q573.98126 103.97734 573.46564 103.430466Q572.96564 102.867966 572.96564 101.711716ZM574.2625 101.69609Q574.2625 102.53984 574.45 102.82109Q574.59064 103.03984 574.85626 103.03984Q575.1219 103.03984 575.2625 102.82109Q575.45 102.53984 575.45 101.69609Q575.45 100.867966 575.2625 100.586716Q575.1219 100.367966 574.85626 100.367966Q574.59064 100.367966 574.45 100.57109Q574.2625 100.867966 574.2625 101.69609ZM576.10626 108.50859L574.8875 108.50859L579.46564 99.44609L580.65314 99.44609L576.10626 108.50859ZM578.7625 106.25859Q578.7625 105.10234 579.2625 104.53984Q579.77814 103.97734 580.65314 103.97734Q581.54376 103.97734 582.04376 104.53984Q582.5594 105.10234 582.5594 106.25859Q582.5594 107.41484 582.04376 107.97734Q581.54376 108.524216 580.6844 108.524216Q579.77814 108.524216 579.2625 107.97734Q578.7625 107.41484 578.7625 106.25859ZM580.04376 106.242966Q580.04376 107.086716 580.2469 107.367966Q580.3875 107.586716 580.65314 107.586716Q580.91876 107.586716 581.0594 107.367966Q581.2469 107.086716 581.2469 106.242966Q581.2469 105.41484 581.0594 105.117966Q580.91876 104.91484 580.65314 104.91484Q580.3875 104.91484 580.2469 105.117966Q580.04376 105.41484 580.04376 106.242966Z" fill-rule="nonzero"/><path stroke="#757575" stroke-width="1.0" stroke-linecap="butt" d="M581.45 95.680466L454.76666 95.680466L328.85876 95.680466" fill-rule="nonzero"/><path fill="#9e9e9e" d="M330.85876 95.680466C330.85876 94.5759 329.96335 93.680466 328.85876 93.680466C327.7542 93.680466 326.85876 94.5759 326.85876 95.680466C326.85876 96.785034 327.7542 97.680466 328.85876 97.680466C329.96335 97.680466 330.85876 96.785034 330.85876 95.680466" fill-rule="nonzero"/><path fill="#000000" d="M29.159374 32.284374L31.971874 33.175Q31.33125 35.51875 29.83125 36.659374Q28.33125 37.8 26.01875 37.8Q23.175 37.8 21.33125 35.846874Q19.503124 33.89375 19.503124 30.51875Q19.503124 26.940624 21.346874 24.971874Q23.190624 22.9875 26.190624 22.9875Q28.83125 22.9875 30.471874 24.534374Q31.440624 25.45625 31.925 27.175L29.065624 27.8625Q28.815624 26.753124 28.003124 26.1125Q27.20625 25.45625 26.05 25.45625Q24.45625 25.45625 23.45625 26.596874Q22.471874 27.7375 22.471874 30.3Q22.471874 33.01875 23.440624 34.175Q24.425 35.315624 25.9875 35.315624Q27.14375 35.315624 27.971874 34.596874Q28.8 33.8625 29.159374 32.284374ZM33.346874 32.221874Q33.346874 30.846874 34.01875 29.565624Q34.70625 28.284374 35.940624 27.6125Q37.175 26.940624 38.690624 26.940624Q41.05 26.940624 42.55 28.471874Q44.05 30.003124 44.05 32.33125Q44.05 34.690624 42.534374 36.2375Q41.01875 37.784374 38.70625 37.784374Q37.284374 37.784374 35.9875 37.14375Q34.70625 36.4875 34.01875 35.253124Q33.346874 34.003124 33.346874 32.221874ZM36.159374 32.3625Q36.159374 33.909374 36.89375 34.7375Q37.628124 35.55 38.70625 35.55Q39.784374 35.55 40.503124 34.7375Q41.2375 33.909374 41.2375 32.346874Q41.2375 30.815624 40.503124 30.003124Q39.784374 29.175 38.70625 29.175Q37.628124 29.175 36.89375 30.003124Q36.159374 30.815624 36.159374 32.3625ZM45.784374 27.175L48.315624 27.175L48.315624 28.596874Q49.675 26.940624 51.55 26.940624Q52.534374 26.940624 53.26875 27.3625Q54.003124 27.76875 54.471874 28.596874Q55.159374 27.76875 55.940624 27.3625Q56.7375 26.940624 57.64375 26.940624Q58.784374 26.940624 59.565624 27.409374Q60.3625 27.878124 60.753124 28.76875Q61.034374 29.440624 61.034374 30.925L61.034374 37.55L58.284374 37.55L58.284374 31.628124Q58.284374 30.08125 58.003124 29.628124Q57.628124 29.05 56.83125 29.05Q56.253124 29.05 55.7375 29.409374Q55.2375 29.753124 55.01875 30.425Q54.8 31.096874 54.8 32.565624L54.8 37.55L52.05 37.55L52.05 31.8625Q52.05 30.346874 51.89375 29.909374Q51.753124 29.471874 51.440624 29.26875Q51.14375 29.05 50.6125 29.05Q49.9875 29.05 49.471874 29.39375Q48.971874 29.721874 48.7375 30.378124Q48.51875 31.01875 48.51875 32.503124L48.51875 37.55L45.784374 37.55L45.784374 27.175ZM62.909374 27.175L65.47188 27.175L65.47188 28.70625Q65.97188 27.925 66.81563 27.440624Q67.65938 26.940624 68.70625 26.940624Q70.50313 26.940624 71.75313 28.3625Q73.01875 29.76875 73.01875 32.3Q73.01875 34.909374 71.75313 36.346874Q70.4875 37.784374 68.675 37.784374Q67.81563 37.784374 67.1125 37.440624Q66.425 37.096874 65.65938 36.26875L65.65938 41.503124L62.909374 41.503124L62.909374 27.175ZM65.62813 32.190624Q65.62813 33.940624 66.31563 34.784374Q67.00313 35.6125 68.00313 35.6125Q68.95625 35.6125 69.59688 34.846874Q70.2375 34.065624 70.2375 32.33125Q70.2375 30.690624 69.58125 29.909374Q68.925 29.1125 67.95625 29.1125Q66.95625 29.1125 66.28438 29.89375Q65.62813 30.659374 65.62813 32.190624ZM77.03438 30.346874L74.55 29.89375Q74.97188 28.39375 75.9875 27.675Q77.01875 26.940624 79.03438 26.940624Q80.87813 26.940624 81.76875 27.378124Q82.675 27.815624 83.03438 28.4875Q83.40938 29.14375 83.40938 30.940624L83.37813 34.14375Q83.37813 35.503124 83.50313 36.159374Q83.64375 36.8 84.00313 37.55L81.28438 37.55Q81.175 37.26875 81.01875 36.7375Q80.95625 36.4875 80.925 36.409374Q80.22188 37.096874 79.40938 37.440624Q78.6125 37.784374 77.70625 37.784374Q76.1125 37.784374 75.19063 36.925Q74.26875 36.05 74.26875 34.721874Q74.26875 33.83125 74.675 33.14375Q75.09688 32.45625 75.84688 32.096874Q76.6125 31.721874 78.05 31.45625Q79.97188 31.096874 80.70625 30.784374L80.70625 30.503124Q80.70625 29.721874 80.31563 29.39375Q79.925 29.05 78.84688 29.05Q78.1125 29.05 77.69063 29.33125Q77.28438 29.6125 77.03438 30.346874ZM80.70625 32.565624Q80.175 32.7375 79.03438 32.9875Q77.89375 33.2375 77.55 33.471874Q77.00313 33.846874 77.00313 34.440624Q77.00313 35.003124 77.425 35.425Q77.8625 35.846874 78.53438 35.846874Q79.26875 35.846874 79.94063 35.3625Q80.44063 34.9875 80.59688 34.45625Q80.70625 34.096874 80.70625 33.1125L80.70625 32.565624ZM88.6125 37.55L85.8625 37.55L85.8625 27.175L88.425 27.175L88.425 28.659374Q89.06563 27.6125 89.58125 27.284374Q90.1125 26.940624 90.78438 26.940624Q91.72188 26.940624 92.58125 27.45625L91.7375 29.846874Q91.05 29.409374 90.45625 29.409374Q89.87813 29.409374 89.47188 29.721874Q89.06563 30.034374 88.83125 30.878124Q88.6125 31.70625 88.6125 34.346874L88.6125 37.55ZM96.03438 30.346874L93.55 29.89375Q93.97188 28.39375 94.9875 27.675Q96.01875 26.940624 98.03438 26.940624Q99.87813 26.940624 100.76875 27.378124Q101.675 27.815624 102.03438 28.4875Q102.40938 29.14375 102.40938 30.940624L102.37813 34.14375Q102.37813 35.503124 102.50313 36.159374Q102.64375 36.8 103.00313 37.55L100.28438 37.55Q100.175 37.26875 100.01875 36.7375Q99.95625 36.4875 99.925 36.409374Q99.22188 37.096874 98.40938 37.440624Q97.6125 37.784374 96.70625 37.784374Q95.1125 37.784374 94.19063 36.925Q93.26875 36.05 93.26875 34.721874Q93.26875 33.83125 93.675 33.14375Q94.09688 32.45625 94.84688 32.096874Q95.6125 31.721874 97.05 31.45625Q98.97188 31.096874 99.70625 30.784374L99.70625 30.503124Q99.70625 29.721874 99.31563 29.39375Q98.925 29.05 97.84688 29.05Q97.1125 29.05 96.69063 29.33125Q96.28438 29.6125 96.03438 30.346874ZM99.70625 32.565624Q99.175 32.7375 98.03438 32.9875Q96.89375 33.2375 96.55 33.471874Q96.00313 33.846874 96.00313 34.440624Q96.00313 35.003124 96.425 35.425Q96.8625 35.846874 97.53438 35.846874Q98.26875 35.846874 98.94063 35.3625Q99.44063 34.9875 99.59688 34.45625Q99.70625 34.096874 99.70625 33.1125L99.70625 32.565624ZM114.03438 30.2375L111.33125 30.7375Q111.19063 29.925 110.70625 29.51875Q110.22188 29.096874 109.45625 29.096874Q108.425 29.096874 107.81563 29.815624Q107.20625 30.51875 107.20625 32.175Q107.20625 34.01875 107.81563 34.784374Q108.44063 35.55 109.4875 35.55Q110.26875 35.55 110.76875 35.1125Q111.26875 34.659374 111.47188 33.58125L114.15938 34.034374Q113.75313 35.89375 112.55 36.846874Q111.3625 37.784374 109.3625 37.784374Q107.08125 37.784374 105.72188 36.346874Q104.37813 34.909374 104.37813 32.378124Q104.37813 29.8 105.7375 28.378124Q107.09688 26.940624 109.40938 26.940624Q111.3 26.940624 112.40938 27.76875Q113.53438 28.58125 114.03438 30.2375ZM106.64375 41.4875L106.64375 40.33125Q107.64375 40.440624 108.4875 40.440624Q109.3625 40.440624 109.76875 40.128124Q110.09688 39.89375 110.09688 39.51875Q110.09688 39.190624 109.78438 38.940624Q109.4875 38.70625 108.8625 38.70625Q108.2375 38.70625 107.58125 38.89375L107.83125 37.925Q108.59688 37.675 109.47188 37.675Q110.69063 37.675 111.31563 38.20625Q111.95625 38.7375 111.95625 39.51875Q111.95625 40.378124 111.25313 40.909374Q110.31563 41.64375 108.55 41.64375Q107.28438 41.64375 106.64375 41.4875ZM118.03438 30.346874L115.55 29.89375Q115.97188 28.39375 116.9875 27.675Q118.01875 26.940624 120.03438 26.940624Q121.87813 26.940624 122.76875 27.378124Q123.675 27.815624 124.03438 28.4875Q124.40938 29.14375 124.40938 30.940624L124.37813 34.14375Q124.37813 35.503124 124.50313 36.159374Q124.64375 36.8 125.00313 37.55L122.28438 37.55Q122.175 37.26875 122.01875 36.7375Q121.95625 36.4875 121.925 36.409374Q121.22188 37.096874 120.40938 37.440624Q119.6125 37.784374 118.70625 37.784374Q117.1125 37.784374 116.19063 36.925Q115.26875 36.05 115.26875 34.721874Q115.26875 33.83125 115.675 33.14375Q116.09688 32.45625 116.84688 32.096874Q117.6125 31.721874 119.05 31.45625Q120.97188 31.096874 121.70625 30.784374L121.70625 30.503124Q121.70625 29.721874 121.31563 29.39375Q120.925 29.05 119.84688 29.05Q119.1125 29.05 118.69063 29.33125Q118.28438 29.6125 118.03438 30.346874ZM121.70625 32.565624Q121.175 32.7375 120.03438 32.9875Q118.89375 33.2375 118.55 33.471874Q118.00313 33.846874 118.00313 34.440624Q118.00313 35.003124 118.425 35.425Q118.8625 35.846874 119.53438 35.846874Q120.26875 35.846874 120.94063 35.3625Q121.44063 34.9875 121.59688 34.45625Q121.70625 34.096874 121.70625 33.1125L121.70625 32.565624ZM118.01875 25.784374L116.75313 25.784374Q116.75313 25.55 116.75313 25.425Q116.75313 24.409374 117.25313 23.8625Q117.75313 23.3 118.53438 23.3Q118.87813 23.3 119.15938 23.378124Q119.45625 23.440624 120.22188 23.8Q121.00313 24.14375 121.45625 24.14375Q121.76875 24.14375 121.97188 23.95625Q122.175 23.753124 122.2375 23.284374L123.50313 23.284374Q123.50313 24.6125 123.01875 25.175Q122.53438 25.7375 121.76875 25.7375Q121.44063 25.7375 121.1125 25.675Q120.89375 25.6125 119.9875 25.26875Q119.09688 24.925 118.69063 24.925Q118.37813 24.925 118.19063 25.128124Q118.01875 25.315624 118.01875 25.784374ZM126.34688 32.221874Q126.34688 30.846874 127.01875 29.565624Q127.70625 28.284374 128.94063 27.6125Q130.175 26.940624 131.69063 26.940624Q134.05 26.940624 135.55 28.471874Q137.05 30.003124 137.05 32.33125Q137.05 34.690624 135.53438 36.2375Q134.01875 37.784374 131.70625 37.784374Q130.28438 37.784374 128.9875 37.14375Q127.70625 36.4875 127.01875 35.253124Q126.34688 34.003124 126.34688 32.221874ZM129.15938 32.3625Q129.15938 33.909374 129.89375 34.7375Q130.62813 35.55 131.70625 35.55Q132.78438 35.55 133.50313 34.7375Q134.2375 33.909374 134.2375 32.346874Q134.2375 30.815624 133.50313 30.003124Q132.78438 29.175 131.70625 29.175Q130.62813 29.175 129.89375 30.003124Q129.15938 30.815624 129.15938 32.3625ZM150.9875 34.253124L153.72188 34.70625Q153.20625 36.20625 152.06563 37.003124Q150.925 37.784374 149.22188 37.784374Q146.50313 37.784374 145.20625 36.01875Q144.19063 34.596874 144.19063 32.440624Q144.19063 29.8625 145.53438 28.409374Q146.87813 26.940624 148.94063 26.940624Q151.25313 26.940624 152.58125 28.471874Q153.925 30.003124 153.87813 33.159374L147.00313 33.159374Q147.03438 34.378124 147.65938 35.065624Q148.3 35.7375 149.2375 35.7375Q149.89375 35.7375 150.33125 35.39375Q150.76875 35.034374 150.9875 34.253124ZM151.14375 31.471874Q151.1125 30.284374 150.51875 29.675Q149.94063 29.05 149.1125 29.05Q148.20625 29.05 147.62813 29.690624Q147.03438 30.346874 147.05 31.471874L151.14375 31.471874ZM165.425 37.55L162.675 37.55L162.675 32.253124Q162.675 30.58125 162.50313 30.096874Q162.33125 29.596874 161.925 29.33125Q161.53438 29.05 160.97188 29.05Q160.26875 29.05 159.69063 29.440624Q159.12813 29.83125 158.90938 30.471874Q158.70625 31.1125 158.70625 32.846874L158.70625 37.55L155.97188 37.55L155.97188 27.175L158.51875 27.175L158.51875 28.70625Q159.87813 26.940624 161.94063 26.940624Q162.84688 26.940624 163.59688 27.26875Q164.34688 27.596874 164.72188 28.1125Q165.1125 28.6125 165.26875 29.26875Q165.425 29.909374 165.425 31.096874L165.425 37.55ZM172.7375 27.175L172.7375 29.3625L170.8625 29.3625L170.8625 33.55Q170.8625 34.815624 170.90938 35.034374Q170.97188 35.2375 171.15938 35.378124Q171.3625 35.503124 171.62813 35.503124Q172.00313 35.503124 172.7375 35.2375L172.97188 37.378124Q172.00313 37.784374 170.8 37.784374Q170.05 37.784374 169.45625 37.534374Q168.8625 37.284374 168.58125 36.89375Q168.31563 36.4875 168.20625 35.815624Q168.1125 35.346874 168.1125 33.89375L168.1125 29.3625L166.84688 29.3625L166.84688 27.175L168.1125 27.175L168.1125 25.1125L170.8625 23.51875L170.8625 27.175L172.7375 27.175ZM177.6125 37.55L174.8625 37.55L174.8625 27.175L177.425 27.175L177.425 28.659374Q178.06563 27.6125 178.58125 27.284374Q179.1125 26.940624 179.78438 26.940624Q180.72188 26.940624 181.58125 27.45625L180.7375 29.846874Q180.05 29.409374 179.45625 29.409374Q178.87813 29.409374 178.47188 29.721874Q178.06563 30.034374 177.83125 30.878124Q177.6125 31.70625 177.6125 34.346874L177.6125 37.55ZM188.9875 34.253124L191.72188 34.70625Q191.20625 36.20625 190.06563 37.003124Q188.925 37.784374 187.22188 37.784374Q184.50313 37.784374 183.20625 36.01875Q182.19063 34.596874 182.19063 32.440624Q182.19063 29.8625 183.53438 28.409374Q184.87813 26.940624 186.94063 26.940624Q189.25313 26.940624 190.58125 28.471874Q191.925 30.003124 191.87813 33.159374L185.00313 33.159374Q185.03438 34.378124 185.65938 35.065624Q186.3 35.7375 187.2375 35.7375Q187.89375 35.7375 188.33125 35.39375Q188.76875 35.034374 188.9875 34.253124ZM189.14375 31.471874Q189.1125 30.284374 188.51875 29.675Q187.94063 29.05 187.1125 29.05Q186.20625 29.05 185.62813 29.690624Q185.03438 30.346874 185.05 31.471874L189.14375 31.471874ZM200.08125 37.55L200.08125 23.346874L202.97188 23.346874L202.97188 35.14375L210.15938 35.14375L210.15938 37.55L200.08125 37.55ZM214.03438 30.346874L211.55 29.89375Q211.97188 28.39375 212.9875 27.675Q214.01875 26.940624 216.03438 26.940624Q217.87813 26.940624 218.76875 27.378124Q219.675 27.815624 220.03438 28.4875Q220.40938 29.14375 220.40938 30.940624L220.37813 34.14375Q220.37813 35.503124 220.50313 36.159374Q220.64375 36.8 221.00313 37.55L218.28438 37.55Q218.175 37.26875 218.01875 36.7375Q217.95625 36.4875 217.925 36.409374Q217.22188 37.096874 216.40938 37.440624Q215.6125 37.784374 214.70625 37.784374Q213.1125 37.784374 212.19063 36.925Q211.26875 36.05 211.26875 34.721874Q211.26875 33.83125 211.675 33.14375Q212.09688 32.45625 212.84688 32.096874Q213.6125 31.721874 215.05 31.45625Q216.97188 31.096874 217.70625 30.784374L217.70625 30.503124Q217.70625 29.721874 217.31563 29.39375Q216.925 29.05 215.84688 29.05Q215.1125 29.05 214.69063 29.33125Q214.28438 29.6125 214.03438 30.346874ZM217.70625 32.565624Q217.175 32.7375 216.03438 32.9875Q214.89375 33.2375 214.55 33.471874Q214.00313 33.846874 214.00313 34.440624Q214.00313 35.003124 214.425 35.425Q214.8625 35.846874 215.53438 35.846874Q216.26875 35.846874 216.94063 35.3625Q217.44063 34.9875 217.59688 34.45625Q217.70625 34.096874 217.70625 33.1125L217.70625 32.565624ZM229.81563 37.55L229.81563 36.003124Q229.25313 36.83125 228.31563 37.315624Q227.39375 37.784374 226.37813 37.784374Q225.33125 37.784374 224.50313 37.33125Q223.675 36.8625 223.3 36.034374Q222.925 35.20625 222.925 33.7375L222.925 27.175L225.675 27.175L225.675 31.940624Q225.675 34.128124 225.81563 34.628124Q225.97188 35.1125 226.3625 35.409374Q226.76875 35.690624 227.39375 35.690624Q228.09688 35.690624 228.64375 35.315624Q229.20625 34.925 229.40938 34.3625Q229.6125 33.784374 229.6125 31.55L229.6125 27.175L232.3625 27.175L232.3625 37.55L229.81563 37.55ZM237.6125 37.55L234.8625 37.55L234.8625 27.175L237.425 27.175L237.425 28.659374Q238.06563 27.6125 238.58125 27.284374Q239.1125 26.940624 239.78438 26.940624Q240.72188 26.940624 241.58125 27.45625L240.7375 29.846874Q240.05 29.409374 239.45625 29.409374Q238.87813 29.409374 238.47188 29.721874Q238.06563 30.034374 237.83125 30.878124Q237.6125 31.70625 237.6125 34.346874L237.6125 37.55ZM248.9875 34.253124L251.72188 34.70625Q251.20625 36.20625 250.06563 37.003124Q248.925 37.784374 247.22188 37.784374Q244.50313 37.784374 243.20625 36.01875Q242.19063 34.596874 242.19063 32.440624Q242.19063 29.8625 243.53438 28.409374Q244.87813 26.940624 246.94063 26.940624Q249.25313 26.940624 250.58125 28.471874Q251.925 30.003124 251.87813 33.159374L245.00313 33.159374Q245.03438 34.378124 245.65938 35.065624Q246.3 35.7375 247.2375 35.7375Q247.89375 35.7375 248.33125 35.39375Q248.76875 35.034374 248.9875 34.253124ZM249.14375 31.471874Q249.1125 30.284374 248.51875 29.675Q247.94063 29.05 247.1125 29.05Q246.20625 29.05 245.62813 29.690624Q245.03438 30.346874 245.05 31.471874L249.14375 31.471874ZM263.5031 37.55L260.95624 37.55L260.95624 36.01875Q260.3156 36.909374 259.4406 37.346874Q258.58124 37.784374 257.70624 37.784374Q255.925 37.784374 254.64375 36.346874Q253.37813 34.909374 253.37813 32.33125Q253.37813 29.690624 254.6125 28.315624Q255.84688 26.940624 257.7531 26.940624Q259.4875 26.940624 260.7531 28.39375L260.7531 23.2375L263.5031 23.2375L263.5031 37.55ZM256.175 32.14375Q256.175 33.8 256.6281 34.534374Q257.3 35.6125 258.4875 35.6125Q259.4406 35.6125 260.09686 34.815624Q260.76874 34.003124 260.76874 32.409374Q260.76874 30.6125 260.1125 29.83125Q259.47186 29.05 258.47186 29.05Q257.4875 29.05 256.83124 29.83125Q256.175 30.596874 256.175 32.14375ZM265.34686 32.221874Q265.34686 30.846874 266.01874 29.565624Q266.70624 28.284374 267.9406 27.6125Q269.175 26.940624 270.6906 26.940624Q273.05 26.940624 274.55 28.471874Q276.05 30.003124 276.05 32.33125Q276.05 34.690624 274.53436 36.2375Q273.01874 37.784374 270.70624 37.784374Q269.28436 37.784374 267.9875 37.14375Q266.70624 36.4875 266.01874 35.253124Q265.34686 34.003124 265.34686 32.221874ZM268.15936 32.3625Q268.15936 33.909374 268.89374 34.7375Q269.6281 35.55 270.70624 35.55Q271.78436 35.55 272.5031 34.7375Q273.2375 33.909374 273.2375 32.346874Q273.2375 30.815624 272.5031 30.003124Q271.78436 29.175 270.70624 29.175Q269.6281 29.175 268.89374 30.003124Q268.15936 30.815624 268.15936 32.3625ZM277.01874 34.596874L279.76874 34.175Q279.95624 34.971874 280.4875 35.39375Q281.01874 35.8 281.9875 35.8Q283.05 35.8 283.59686 35.409374Q283.95624 35.14375 283.95624 34.675Q283.95624 34.3625 283.7531 34.159374Q283.55 33.971874 282.84686 33.8Q279.51874 33.065624 278.6281 32.45625Q277.39374 31.628124 277.39374 30.128124Q277.39374 28.784374 278.45624 27.8625Q279.53436 26.940624 281.76874 26.940624Q283.89374 26.940624 284.925 27.64375Q285.97186 28.33125 286.3625 29.690624L283.76874 30.159374Q283.59686 29.565624 283.1281 29.2375Q282.675 28.909374 281.8156 28.909374Q280.7375 28.909374 280.26874 29.221874Q279.95624 29.440624 279.95624 29.76875Q279.95624 30.065624 280.22186 30.26875Q280.59686 30.55 282.78436 31.05Q284.97186 31.55 285.84686 32.26875Q286.70624 33.003124 286.70624 34.3Q286.70624 35.7375 285.51874 36.76875Q284.33124 37.784374 281.9875 37.784374Q279.8781 37.784374 278.6281 36.925Q277.39374 36.065624 277.01874 34.596874Z" fill-rule="nonzero"/></svg>